<svg viewBox="0 0 26 26" fill="currentColor" xmlns="http://www.w3.org/2000/svg">
<path d="M24.5555 7.82175L15.8889 0.991925C15.0944 0.353148 14.0659 0 13 0C11.9342 0 10.9056 0.353148 10.1112 0.991925L1.44457 7.82175C0.985773 8.19061 0.619655 8.64309 0.370594 9.14908C0.121533 9.65507 -0.00475589 10.2029 0.000136924 10.7562V22.1047C0.000136924 23.1378 0.45668 24.1286 1.26933 24.8591C2.08198 25.5896 3.18418 26 4.33344 26H21.6667C22.8159 26 23.9181 25.5896 24.7308 24.8591C25.5434 24.1286 26 23.1378 26 22.1047V10.7433C26.0028 10.1921 25.8755 9.64677 25.6265 9.14316C25.3775 8.63954 25.0125 8.18916 24.5555 7.82175ZM15.8889 23.4031H10.1112V16.9109C10.1112 16.5665 10.2634 16.2362 10.5342 15.9927C10.8051 15.7492 11.1725 15.6124 11.5556 15.6124H14.4445C14.8276 15.6124 15.195 15.7492 15.4658 15.9927C15.7367 16.2362 15.8889 16.5665 15.8889 16.9109V23.4031ZM23.1111 22.1047C23.1111 22.449 22.9589 22.7793 22.688 23.0228C22.4171 23.2663 22.0497 23.4031 21.6667 23.4031H18.7778V16.9109C18.7778 15.8778 18.3212 14.887 17.5086 14.1565C16.6959 13.4259 15.5937 13.0155 14.4445 13.0155H11.5556C10.4063 13.0155 9.30415 13.4259 8.4915 14.1565C7.67885 14.887 7.22231 15.8778 7.22231 16.9109V23.4031H4.33344C3.95035 23.4031 3.58295 23.2663 3.31207 23.0228C3.04119 22.7793 2.88901 22.449 2.88901 22.1047V10.7433C2.88927 10.5589 2.9332 10.3767 3.01787 10.2088C3.10255 10.0409 3.22604 9.8911 3.38011 9.76942L12.0467 2.95258C12.3103 2.74441 12.6492 2.62961 13 2.62961C13.3509 2.62961 13.6898 2.74441 13.9534 2.95258L22.62 9.76942C22.7741 9.8911 22.8975 10.0409 22.9822 10.2088C23.0669 10.3767 23.1108 10.5589 23.1111 10.7433V22.1047Z" fill="currentColor"/>
</svg>
