<svg viewBox="0 0 26 29" fill="none" xmlns="http://www.w3.org/2000/svg">
<path d="M19.8333 0V2.83333H24.0932C24.8696 2.83333 25.5 3.46375 25.5 4.24008V26.9266C25.4996 27.2996 25.3513 27.6572 25.0876 27.9209C24.8238 28.1846 24.4662 28.333 24.0932 28.3333H1.40675C1.03366 28.3333 0.675844 28.1851 0.412028 27.9213C0.148211 27.6575 0 27.2997 0 26.9266V4.24008C0 3.46375 0.630417 2.83333 1.40675 2.83333H5.66667V0H19.8333ZM5.66667 5.66667H2.83333V25.5H22.6667V5.66667H19.8333V8.5H5.66667V5.66667ZM8.5 19.8333V22.6667H5.66667V19.8333H8.5ZM8.5 15.5833V18.4167H5.66667V15.5833H8.5ZM8.5 11.3333V14.1667H5.66667V11.3333H8.5ZM17 2.83333H8.5V5.66667H17V2.83333Z" fill="currentColor"/>
</svg>
