<svg viewBox="0 0 24 26" fill="none" xmlns="http://www.w3.org/2000/svg">
<path d="M12.5615 19.7302C11.9372 19.1059 11.625 18.3417 11.625 17.4375C11.625 16.5333 11.9372 15.7691 12.5615 15.1448C13.1858 14.5205 13.95 14.2083 14.8542 14.2083C15.7583 14.2083 16.5226 14.5205 17.1469 15.1448C17.7712 15.7691 18.0833 16.5333 18.0833 17.4375C18.0833 18.3417 17.7712 19.1059 17.1469 19.7302C16.5226 20.3545 15.7583 20.6667 14.8542 20.6667C13.95 20.6667 13.1858 20.3545 12.5615 19.7302ZM2.58333 25.8333C1.87292 25.8333 1.26497 25.5806 0.7595 25.0751C0.254028 24.5697 0.000861111 23.9613 0 23.25V5.16667C0 4.45625 0.253167 3.84831 0.7595 3.34284C1.26583 2.83737 1.87378 2.5842 2.58333 2.58334H3.875V1.29167C3.875 0.925699 3.999 0.619144 4.247 0.372005C4.495 0.124866 4.80156 0.000865565 5.16667 4.45402e-06C5.53178 -0.000856657 5.83876 0.123144 6.08762 0.372005C6.33649 0.620866 6.46006 0.927421 6.45833 1.29167V2.58334H16.7917V1.29167C16.7917 0.925699 16.9157 0.619144 17.1637 0.372005C17.4117 0.124866 17.7182 0.000865565 18.0833 4.45402e-06C18.4484 -0.000856657 18.7554 0.123144 19.0043 0.372005C19.2532 0.620866 19.3767 0.927421 19.375 1.29167V2.58334H20.6667C21.3771 2.58334 21.9855 2.8365 22.4918 3.34284C22.9981 3.84917 23.2509 4.45712 23.25 5.16667V23.25C23.25 23.9604 22.9973 24.5688 22.4918 25.0751C21.9863 25.5815 21.3779 25.8342 20.6667 25.8333H2.58333ZM2.58333 23.25H20.6667V10.3333H2.58333V23.25Z" fill="currentColor"/>
</svg>
