<svg viewBox="0 0 26 26" fill="none" xmlns="http://www.w3.org/2000/svg">
<path d="M22.1641 14.1825C22.2158 13.7692 22.2546 13.3559 22.2546 12.9167C22.2546 12.4775 22.2158 12.0642 22.1641 11.6509L24.8896 9.51962C25.135 9.32587 25.1996 8.97712 25.0446 8.69295L22.4612 4.22378C22.3851 4.09052 22.264 3.98872 22.1196 3.93665C21.9752 3.88458 21.817 3.88563 21.6733 3.93962L18.4571 5.23128C17.7854 4.71462 17.0621 4.28837 16.2741 3.96545L15.7833 0.542533C15.7614 0.390788 15.6852 0.252148 15.5688 0.152371C15.4524 0.0525932 15.3037 -0.00153809 15.1504 3.32742e-05H9.98372C9.6608 3.32742e-05 9.38955 0.232533 9.3508 0.542533L8.85997 3.96545C8.07205 4.28837 7.34872 4.72753 6.67705 5.23128L3.4608 3.93962C3.38573 3.91492 3.30733 3.90185 3.2283 3.90087C3.00872 3.90087 2.78914 4.01712 2.67289 4.22378L0.0895533 8.69295C-0.0783634 8.97712 -0.000863224 9.32587 0.244553 9.51962L2.96997 11.6509C2.9183 12.0642 2.87955 12.4905 2.87955 12.9167C2.87955 13.343 2.9183 13.7692 2.96997 14.1825L0.244553 16.3138C-0.000863224 16.5075 -0.0654467 16.8563 0.0895533 17.1405L2.67289 21.6096C2.74903 21.7429 2.87015 21.8447 3.01453 21.8968C3.15892 21.9488 3.31712 21.9478 3.4608 21.8938L6.67705 20.6021C7.34872 21.1188 8.07205 21.545 8.85997 21.868L9.3508 25.2909C9.38955 25.6009 9.6608 25.8334 9.98372 25.8334H15.1504C15.4733 25.8334 15.7446 25.6009 15.7833 25.2909L16.2741 21.868C17.0621 21.545 17.7854 21.1059 18.4571 20.6021L21.6733 21.8938C21.7508 21.9196 21.8283 21.9325 21.9058 21.9325C22.1254 21.9325 22.345 21.8163 22.4612 21.6096L25.0446 17.1405C25.1996 16.8563 25.135 16.5075 24.8896 16.3138L22.1641 14.1825ZM19.6066 11.9738C19.6583 12.3742 19.6712 12.6455 19.6712 12.9167C19.6712 13.188 19.6454 13.4721 19.6066 13.8596L19.4258 15.3192L20.5754 16.2234L21.9704 17.3084L21.0662 18.8713L19.4258 18.2125L18.0825 17.67L16.92 18.5484C16.3646 18.9617 15.835 19.2717 15.3054 19.4913L13.9362 20.0467L13.7296 21.5063L13.4712 23.25H11.6629L11.4175 21.5063L11.2108 20.0467L9.84164 19.4913C9.28622 19.2588 8.76955 18.9617 8.25289 18.5742L7.07747 17.67L5.7083 18.2255L4.06789 18.8842L3.16372 17.3213L4.55872 16.2363L5.7083 15.3321L5.52747 13.8725C5.48872 13.4721 5.46289 13.175 5.46289 12.9167C5.46289 12.6584 5.48872 12.3613 5.52747 11.9738L5.7083 10.5142L4.55872 9.61003L3.16372 8.52503L4.06789 6.96212L5.7083 7.62087L7.05164 8.16337L8.21414 7.28503C8.76955 6.8717 9.29914 6.5617 9.82872 6.34212L11.1979 5.7867L11.4046 4.32712L11.6629 2.58337H13.4583L13.7037 4.32712L13.9104 5.7867L15.2796 6.34212C15.835 6.57462 16.3516 6.8717 16.8683 7.2592L18.0437 8.16337L19.4129 7.60795L21.0533 6.9492L21.9575 8.51212L20.5754 9.61003L19.4258 10.5142L19.6066 11.9738ZM12.5671 7.75003C9.71247 7.75003 7.40039 10.0621 7.40039 12.9167C7.40039 15.7713 9.71247 18.0834 12.5671 18.0834C15.4216 18.0834 17.7337 15.7713 17.7337 12.9167C17.7337 10.0621 15.4216 7.75003 12.5671 7.75003ZM12.5671 15.5C11.1462 15.5 9.98372 14.3375 9.98372 12.9167C9.98372 11.4959 11.1462 10.3334 12.5671 10.3334C13.9879 10.3334 15.1504 11.4959 15.1504 12.9167C15.1504 14.3375 13.9879 15.5 12.5671 15.5Z" fill="currentColor"/>
</svg>
