<svg viewBox="0 0 10 19" fill="none" xmlns="http://www.w3.org/2000/svg">
<path d="M8.65055 0.224546L0.231017 8.86244C0.0829066 9.0142 0 9.21786 0 9.42992C0 9.64198 0.0829066 9.84563 0.231017 9.9974L8.65055 18.6378C8.71921 18.7089 8.80147 18.7653 8.89242 18.8039C8.98337 18.8425 9.08115 18.8624 9.17994 18.8624C9.27874 18.8624 9.37652 18.8425 9.46747 18.8039C9.55842 18.7653 9.64067 18.7089 9.70934 18.6378C9.85063 18.4928 9.9297 18.2982 9.9297 18.0957C9.9297 17.8932 9.85063 17.6987 9.70934 17.5536L1.79254 9.42865L9.7068 1.30873C9.84809 1.16365 9.92716 0.969146 9.92716 0.766636C9.92716 0.564127 9.84809 0.36962 9.7068 0.224546C9.63813 0.153518 9.55588 0.0970342 9.46493 0.0584574C9.37398 0.0198807 9.2762 0 9.1774 0C9.07861 0 8.98083 0.0198807 8.88988 0.0584574C8.79893 0.0970342 8.71667 0.153518 8.64801 0.224546" fill="currentColor"/>
</svg>
