<svg width="43" height="40" viewBox="0 0 43 40" fill="none" xmlns="http://www.w3.org/2000/svg">
<ellipse cx="21.3937" cy="20" rx="21.3934" ry="20" fill="#F6835E"/>
<path d="M20.2884 17.6667C20.8246 17.6667 21.3556 17.561 21.851 17.3558C22.3464 17.1506 22.7966 16.8499 23.1758 16.4707C23.5549 16.0915 23.8557 15.6414 24.0609 15.146C24.2661 14.6505 24.3717 14.1196 24.3717 13.5833C24.3717 13.0471 24.2661 12.5161 24.0609 12.0207C23.8557 11.5253 23.5549 11.0752 23.1758 10.696C22.7966 10.3168 22.3464 10.016 21.851 9.81083C21.3556 9.60562 20.8246 9.5 20.2884 9.5C19.2054 9.5 18.1668 9.93021 17.4011 10.696C16.6353 11.4618 16.2051 12.5004 16.2051 13.5833C16.2051 14.6663 16.6353 15.7049 17.4011 16.4707C18.1668 17.2365 19.2054 17.6667 20.2884 17.6667Z" stroke="white" stroke-width="2" stroke-linejoin="round"/>
<path d="M30.2051 22.9163V29.9163M26.7051 26.4163H33.7051M24.9551 22.333H20.1717C17.5584 22.333 16.2517 22.333 15.2531 22.8417C14.375 23.2891 13.6611 24.003 13.2137 24.881C12.7051 25.8797 12.7051 27.1863 12.7051 29.7997V30.4997H24.9551" stroke="white" stroke-width="2" stroke-linecap="round" stroke-linejoin="round"/>
</svg>
