<svg width="27" height="24" viewBox="0 0 27 24" fill="none" xmlns="http://www.w3.org/2000/svg">
<path d="M17.3333 1.33691e-07C18.0061 -0.000212772 18.6541 0.253875 19.1474 0.711329C19.6407 1.16878 19.9429 1.79579 19.9933 2.46667L20 2.66667C20 2.99324 20.1199 3.30845 20.337 3.5525C20.554 3.79654 20.853 3.95246 21.1773 3.99067L21.3333 4H22.6667C23.6869 3.99994 24.6687 4.38977 25.411 5.08971C26.1533 5.78966 26.6001 6.74681 26.66 7.76533L26.6667 8V20C26.6667 21.0203 26.2769 22.002 25.577 22.7443C24.877 23.4867 23.9199 23.9335 22.9013 23.9933L22.6667 24H4C2.97972 24.0001 1.99798 23.6102 1.25565 22.9103C0.513324 22.2103 0.0665233 21.2532 0.00666683 20.2347L6.21393e-09 20V8C-5.6829e-05 6.97972 0.389767 5.99798 1.08971 5.25565C1.78966 4.51332 2.74681 4.06652 3.76533 4.00667L4 4H5.33333C5.68695 4 6.02609 3.85952 6.27614 3.60948C6.52619 3.35943 6.66667 3.02029 6.66667 2.66667C6.66645 1.9939 6.92054 1.34591 7.378 0.852603C7.83545 0.359294 8.46246 0.0571246 9.13333 0.00666695L9.33333 1.33691e-07H17.3333ZM13.3333 9.33333C12.3421 9.33325 11.3862 9.7012 10.6508 10.3658C9.9155 11.0305 9.45311 11.9445 9.35333 12.9307L9.33867 13.1333L9.33333 13.3333L9.33867 13.5333C9.3778 14.315 9.64537 15.068 10.1082 15.699C10.5711 16.3301 11.2089 16.8115 11.9427 17.0837C12.6765 17.3558 13.474 17.4068 14.2364 17.2301C14.9988 17.0535 15.6927 16.6571 16.2321 16.09C16.7714 15.5229 17.1326 14.8101 17.2708 14.0398C17.409 13.2695 17.3182 12.4755 17.0097 11.7563C16.7011 11.0371 16.1883 10.4241 15.5349 9.99347C14.8814 9.56279 14.116 9.33327 13.3333 9.33333Z" fill="black"/>
</svg>
