<svg width="25" height="25" viewBox="0 0 25 25" fill="none" xmlns="http://www.w3.org/2000/svg">
<path d="M13.5483 3.21729C13.3655 3.21729 13.217 3.36579 13.217 3.54879C13.217 3.56579 13.2243 3.58054 13.2268 3.59704H13.217V11.4565C13.217 11.6395 13.3655 11.788 13.5483 11.788H21.4075V11.7783C21.424 11.7808 21.4388 11.788 21.456 11.788C21.6388 11.788 21.7873 11.6395 21.7873 11.4565C21.7403 6.92654 18.0783 3.26454 13.5483 3.21729Z" fill="#F6835E"/>
<path d="M19.8711 13.365C19.8711 13.182 19.7229 13.0335 19.5399 13.0335H12.3151C12.2273 13.0335 12.143 12.9985 12.0809 12.9363C12.0188 12.8742 11.9839 12.7899 11.9839 12.702V5.50377H11.9741C11.9766 5.48727 11.9839 5.47252 11.9839 5.45552C11.9839 5.27227 11.8354 5.12402 11.6524 5.12402C11.6444 5.12402 11.6379 5.12802 11.6301 5.12852V5.12627C11.6006 5.12602 11.5714 5.12402 11.5419 5.12402C6.9419 5.12402 3.21265 8.85327 3.21265 13.4533C3.21265 18.0533 6.9419 21.7825 11.5419 21.7825C16.1419 21.7825 19.8711 18.0533 19.8711 13.4533C19.8708 13.4269 19.8702 13.4004 19.8694 13.3738C19.8694 13.3705 19.8711 13.368 19.8711 13.365Z" fill="#F6835E"/>
</svg>
