<svg width="43" height="40" viewBox="0 0 43 40" fill="none" xmlns="http://www.w3.org/2000/svg">
<ellipse cx="21.3934" cy="20" rx="21.3934" ry="20" fill="#8866AC"/>
<path d="M17.8691 33.6663C17.1691 33.6663 16.7024 33.1997 16.7024 32.4997V28.9997H12.0357C10.7524 28.9997 9.70239 27.9497 9.70239 26.6663V12.6663C9.70239 11.383 10.7524 10.333 12.0357 10.333H30.7024C31.9857 10.333 33.0357 11.383 33.0357 12.6663V26.6663C33.0357 27.9497 31.9857 28.9997 30.7024 28.9997H23.5857L19.2691 33.3163C19.0357 33.5497 18.8024 33.6663 18.4524 33.6663H17.8691ZM19.0357 26.6663V30.283L22.6524 26.6663H30.7024V12.6663H12.0357V26.6663H19.0357ZM26.3857 14.9997L24.7524 18.4997H27.2024V23.1663H22.5357V18.2663L24.0524 14.9997H26.3857ZM19.3857 14.9997L17.7524 18.4997H20.2024V23.1663H15.5357V18.2663L17.0524 14.9997H19.3857Z" fill="white"/>
</svg>
