<svg width="19" height="19" viewBox="0 0 19 19" fill="none" xmlns="http://www.w3.org/2000/svg">
<path d="M13.4583 1.5835V3.16683H15.8389C16.2727 3.16683 16.625 3.51912 16.625 3.95295V16.6307C16.6248 16.8391 16.5419 17.039 16.3945 17.1863C16.2471 17.3337 16.0473 17.4166 15.8389 17.4168H3.16113C2.95263 17.4168 2.75268 17.334 2.60525 17.1866C2.45782 17.0392 2.375 16.8392 2.375 16.6307V3.95295C2.375 3.51912 2.72729 3.16683 3.16113 3.16683H5.54167V1.5835H13.4583ZM5.54167 4.75016H3.95833V15.8335H15.0417V4.75016H13.4583V6.3335H5.54167V4.75016ZM7.125 12.6668V14.2502H5.54167V12.6668H7.125ZM7.125 10.2918V11.8752H5.54167V10.2918H7.125ZM7.125 7.91683V9.50016H5.54167V7.91683H7.125ZM11.875 3.16683H7.125V4.75016H11.875V3.16683Z" fill="white"/>
</svg>
