<svg width="19" height="19" viewBox="0 0 19 19" fill="none" xmlns="http://www.w3.org/2000/svg">
<path d="M7.12498 17.4168C6.64998 17.4168 6.33331 17.1002 6.33331 16.6252V14.2502H3.16665C2.29581 14.2502 1.58331 13.5377 1.58331 12.6668V3.16683C1.58331 2.296 2.29581 1.5835 3.16665 1.5835H15.8333C16.7041 1.5835 17.4166 2.296 17.4166 3.16683V12.6668C17.4166 13.5377 16.7041 14.2502 15.8333 14.2502H11.0041L8.07498 17.1793C7.91665 17.3377 7.75831 17.4168 7.52081 17.4168H7.12498ZM7.91665 12.6668V15.121L10.3708 12.6668H15.8333V3.16683H3.16665V12.6668H7.91665ZM12.9041 4.75016L11.7958 7.12516H13.4583V10.2918H10.2916V6.96683L11.3208 4.75016H12.9041ZM8.15415 4.75016L7.04581 7.12516H8.70831V10.2918H5.54165V6.96683L6.57081 4.75016H8.15415Z" fill="white"/>
</svg>
