<svg width="24" height="24" viewBox="0 0 24 24" fill="none" xmlns="http://www.w3.org/2000/svg">
<path d="M22.875 22.5H1.125C0.814 22.5 0.549 22.39 0.33 22.17C0.11 21.951 0 21.686 0 21.375C0 21.064 0.11 20.799 0.33 20.58C0.549 20.36 0.814 20.25 1.125 20.25H22.875C23.186 20.25 23.451 20.36 23.67 20.58C23.89 20.799 24 21.064 24 21.375C24 21.686 23.89 21.951 23.67 22.17C23.451 22.39 23.186 22.5 22.875 22.5Z" fill="#F6835E"/>
<path d="M3.375 10.5H7.125C7.22446 10.5 7.31984 10.5395 7.39017 10.6098C7.46049 10.6802 7.5 10.7755 7.5 10.875V20.625C7.5 20.7245 7.46049 20.8198 7.39017 20.8902C7.31984 20.9605 7.22446 21 7.125 21H3.375C3.27554 21 3.18016 20.9605 3.10984 20.8902C3.03951 20.8198 3 20.7245 3 20.625V10.875C3 10.7755 3.03951 10.6802 3.10984 10.6098C3.18016 10.5395 3.27554 10.5 3.375 10.5ZM9.375 4.5H13.125C13.2245 4.5 13.3198 4.53951 13.3902 4.60984C13.4605 4.68016 13.5 4.77554 13.5 4.875V20.625C13.5 20.7245 13.4605 20.8198 13.3902 20.8902C13.3198 20.9605 13.2245 21 13.125 21H9.375C9.27554 21 9.18016 20.9605 9.10983 20.8902C9.03951 20.8198 9 20.7245 9 20.625V4.875C9 4.77554 9.03951 4.68016 9.10983 4.60984C9.18016 4.53951 9.27554 4.5 9.375 4.5ZM15.375 13.5H19.125C19.2245 13.5 19.3198 13.5395 19.3902 13.6098C19.4605 13.6802 19.5 13.7755 19.5 13.875V20.625C19.5 20.7245 19.4605 20.8198 19.3902 20.8902C19.3198 20.9605 19.2245 21 19.125 21H15.375C15.2755 21 15.1802 20.9605 15.1098 20.8902C15.0395 20.8198 15 20.7245 15 20.625V13.875C15 13.7755 15.0395 13.6802 15.1098 13.6098C15.1802 13.5395 15.2755 13.5 15.375 13.5Z" fill="#F6835E"/>
</svg>
