<svg width="43" height="40" viewBox="0 0 43 40" fill="none" xmlns="http://www.w3.org/2000/svg">
<ellipse cx="21.3934" cy="20" rx="21.3934" ry="20" fill="#94B983"/>
<path d="M22.4528 26.1538C21.8889 25.59 21.6069 24.8997 21.6069 24.083C21.6069 23.2663 21.8889 22.5761 22.4528 22.0122C23.0167 21.4483 23.7069 21.1663 24.5236 21.1663C25.3403 21.1663 26.0305 21.4483 26.5944 22.0122C27.1583 22.5761 27.4403 23.2663 27.4403 24.083C27.4403 24.8997 27.1583 25.59 26.5944 26.1538C26.0305 26.7177 25.3403 26.9997 24.5236 26.9997C23.7069 26.9997 23.0167 26.7177 22.4528 26.1538ZM13.4403 31.6663C12.7986 31.6663 12.2495 31.4381 11.7929 30.9815C11.3364 30.525 11.1077 29.9755 11.1069 29.333V12.9997C11.1069 12.358 11.3356 11.8089 11.7929 11.3523C12.2503 10.8958 12.7994 10.6671 13.4403 10.6663H14.6069V9.49968C14.6069 9.16912 14.7189 8.89223 14.9429 8.66901C15.1669 8.44579 15.4438 8.33379 15.7736 8.33301C16.1034 8.33223 16.3807 8.44423 16.6054 8.66901C16.8302 8.89379 16.9418 9.17068 16.9403 9.49968V10.6663H26.2736V9.49968C26.2736 9.16912 26.3856 8.89223 26.6096 8.66901C26.8336 8.44579 27.1105 8.33379 27.4403 8.33301C27.77 8.33223 28.0473 8.44423 28.2721 8.66901C28.4969 8.89379 28.6085 9.17068 28.6069 9.49968V10.6663H29.7736C30.4153 10.6663 30.9648 10.895 31.4221 11.3523C31.8794 11.8097 32.1077 12.3588 32.1069 12.9997V29.333C32.1069 29.9747 31.8787 30.5242 31.4221 30.9815C30.9655 31.4388 30.416 31.6671 29.7736 31.6663H13.4403ZM13.4403 29.333H29.7736V17.6663H13.4403V29.333Z" fill="white"/>
</svg>
