<svg width="14" height="14" viewBox="0 0 14 14" fill="none" xmlns="http://www.w3.org/2000/svg">
<g clip-path="url(#clip0_4269_1259)">
<path d="M7 5.83333C7.26812 5.83333 7.53361 5.78052 7.78131 5.67792C8.02902 5.57532 8.25409 5.42493 8.44368 5.23534C8.63326 5.04576 8.78365 4.82069 8.88625 4.57298C8.98886 4.32527 9.04167 4.05978 9.04167 3.79167C9.04167 3.52355 8.98886 3.25806 8.88625 3.01035C8.78365 2.76265 8.63326 2.53758 8.44368 2.34799C8.25409 2.1584 8.02902 2.00802 7.78131 1.90541C7.53361 1.80281 7.26812 1.75 7 1.75C6.45852 1.75 5.93921 1.9651 5.55632 2.34799C5.17344 2.73088 4.95833 3.25018 4.95833 3.79167C4.95833 4.33315 5.17344 4.85246 5.55632 5.23534C5.93921 5.61823 6.45852 5.83333 7 5.83333ZM1.75 11.9V12.25H12.25V11.9C12.25 10.5933 12.25 9.94 11.9957 9.44067C11.772 9.00164 11.415 8.6447 10.976 8.421C10.4767 8.16667 9.82333 8.16667 8.51667 8.16667H5.48333C4.17667 8.16667 3.52333 8.16667 3.024 8.421C2.58497 8.6447 2.22803 9.00164 2.00433 9.44067C1.75 9.94 1.75 10.5933 1.75 11.9Z" fill="#F7906E" stroke="#F7906E" stroke-width="2" stroke-linecap="round" stroke-linejoin="round"/>
</g>
<defs>
<clipPath id="clip0_4269_1259">
<rect width="14" height="14" fill="white"/>
</clipPath>
</defs>
</svg>
