<svg width="13" height="16" viewBox="0 0 13 16" fill="none" xmlns="http://www.w3.org/2000/svg">
<path fill-rule="evenodd" clip-rule="evenodd" d="M0.0219008 5.53275C0.146653 4.02506 0.83357 2.61935 1.94637 1.59449C3.05918 0.569625 4.51656 0.00049243 6.0294 0H6.3534C7.86624 0.00049243 9.32362 0.569625 10.4364 1.59449C11.5492 2.61935 12.2361 4.02506 12.3609 5.53275C12.4993 7.21605 11.9797 8.88746 10.9112 10.1955L7.3164 14.592C7.18015 14.7588 7.00853 14.8931 6.81397 14.9854C6.6194 15.0777 6.40675 15.1256 6.1914 15.1256C5.97606 15.1256 5.76341 15.0777 5.56884 14.9854C5.37427 14.8931 5.20265 14.7588 5.0664 14.592L1.4724 10.1955C0.403622 8.88757 -0.116327 7.21616 0.0219008 5.53275ZM6.1914 2.8125C5.24657 2.8125 4.34043 3.18783 3.67233 3.85593C3.00424 4.52403 2.6289 5.43017 2.6289 6.375C2.6289 7.31983 3.00424 8.22597 3.67233 8.89407C4.34043 9.56217 5.24657 9.9375 6.1914 9.9375C7.13624 9.9375 8.04237 9.56217 8.71047 8.89407C9.37857 8.22597 9.7539 7.31983 9.7539 6.375C9.7539 5.43017 9.37857 4.52403 8.71047 3.85593C8.04237 3.18783 7.13624 2.8125 6.1914 2.8125Z" fill="#F7906E"/>
</svg>
