<svg width="14" height="14" viewBox="0 0 14 14" fill="none" xmlns="http://www.w3.org/2000/svg">
<g clip-path="url(#clip0_4269_1261)">
<path d="M5.375 7.68421C5.71972 7.68421 6.06106 7.6107 6.37954 7.46787C6.69802 7.32504 6.9874 7.11569 7.23115 6.85178C7.47491 6.58786 7.66827 6.27455 7.80018 5.92973C7.9321 5.58491 8 5.21534 8 4.84211C8 4.46887 7.9321 4.0993 7.80018 3.75448C7.66827 3.40966 7.47491 3.09635 7.23115 2.83243C6.9874 2.56852 6.69802 2.35917 6.37954 2.21634C6.06106 2.07351 5.71972 2 5.375 2C4.67881 2 4.01113 2.29944 3.51884 2.83243C3.02656 3.36543 2.75 4.08833 2.75 4.84211C2.75 5.59588 3.02656 6.31878 3.51884 6.85178C4.01113 7.38477 4.67881 7.68421 5.375 7.68421ZM9.80833 12.4962C10.2534 12.6446 10.8082 12.7368 11.5 12.7368C15 12.7368 15 10.3684 15 10.3684C15 9.99153 14.8617 9.63008 14.6156 9.36358C14.3694 9.09709 14.0356 8.94737 13.6875 8.94737H9.80483C10.1439 9.3293 10.3329 9.83869 10.3322 10.3684V10.7189L10.3304 10.7714C10.3181 10.9823 10.288 11.1916 10.2406 11.3966C10.1503 11.785 10.0047 12.1558 9.80892 12.4956M13.5417 5.47368C13.5417 5.76397 13.4889 6.05142 13.3863 6.31962C13.2836 6.58781 13.1333 6.8315 12.9437 7.03676C12.7541 7.24203 12.529 7.40485 12.2813 7.51594C12.0336 7.62703 11.7681 7.68421 11.5 7.68421C11.2319 7.68421 10.9664 7.62703 10.7187 7.51594C10.471 7.40485 10.2459 7.24203 10.0563 7.03676C9.86674 6.8315 9.71635 6.58781 9.61375 6.31962C9.51114 6.05142 9.45833 5.76397 9.45833 5.47368C9.45833 4.88742 9.67344 4.32516 10.0563 3.91061C10.4392 3.49605 10.9585 3.26316 11.5 3.26316C12.0415 3.26316 12.5608 3.49605 12.9437 3.91061C13.3266 4.32516 13.5417 4.88742 13.5417 5.47368ZM1 10.3684C1 9.99153 1.13828 9.63008 1.38442 9.36358C1.63056 9.09709 1.9644 8.94737 2.3125 8.94737H8.4375C8.7856 8.94737 9.11944 9.09709 9.36558 9.36358C9.61172 9.63008 9.75 9.99153 9.75 10.3684V10.6842C9.75 10.6842 9.75 14 5.375 14C1 14 1 10.6842 1 10.6842V10.3684Z" fill="#F7906E"/>
</g>
<defs>
<clipPath id="clip0_4269_1261">
<rect width="14" height="14" fill="white"/>
</clipPath>
</defs>
</svg>
