<svg width="14" height="14" viewBox="0 0 14 14" fill="none" xmlns="http://www.w3.org/2000/svg">
<path d="M1.16663 5.25033C1.16663 4.15016 1.16663 3.60066 1.50846 3.25883C1.85029 2.91699 2.39979 2.91699 3.49996 2.91699H10.5C11.6001 2.91699 12.1496 2.91699 12.4915 3.25883C12.8333 3.60066 12.8333 4.15016 12.8333 5.25033C12.8333 5.52508 12.8333 5.66274 12.7481 5.74849C12.6624 5.83366 12.5241 5.83366 12.25 5.83366H1.74996C1.47521 5.83366 1.33754 5.83366 1.25179 5.74849C1.16663 5.66274 1.16663 5.52449 1.16663 5.25033ZM1.16663 10.5003C1.16663 11.6005 1.16663 12.15 1.50846 12.4918C1.85029 12.8337 2.39979 12.8337 3.49996 12.8337H10.5C11.6001 12.8337 12.1496 12.8337 12.4915 12.4918C12.8333 12.15 12.8333 11.6005 12.8333 10.5003V7.58366C12.8333 7.30891 12.8333 7.17124 12.7481 7.08549C12.6624 7.00033 12.5241 7.00033 12.25 7.00033H1.74996C1.47521 7.00033 1.33754 7.00033 1.25179 7.08549C1.16663 7.17124 1.16663 7.30949 1.16663 7.58366V10.5003Z" fill="#F7906E"/>
<path d="M4.08325 1.75V3.5M9.91659 1.75V3.5" stroke="#F7906E" stroke-width="2" stroke-linecap="round"/>
</svg>
