<svg width="45" height="45" viewBox="0 0 45 45" fill="none" xmlns="http://www.w3.org/2000/svg">
<path d="M18.9917 26.0583L14.2438 21.3104C13.8389 20.9056 13.3236 20.7031 12.6979 20.7031C12.0722 20.7031 11.5569 20.9056 11.1521 21.3104C10.7472 21.7153 10.5448 22.2306 10.5448 22.8563C10.5448 23.4819 10.7472 23.9972 11.1521 24.4021L17.4458 30.6958C17.8875 31.1375 18.4028 31.3583 18.9917 31.3583C19.5806 31.3583 20.0958 31.1375 20.5375 30.6958L33.0146 18.2188C33.4194 17.8139 33.6219 17.2986 33.6219 16.6729C33.6219 16.0472 33.4194 15.5319 33.0146 15.1271C32.6097 14.7222 32.0944 14.5198 31.4687 14.5198C30.8431 14.5198 30.3278 14.7222 29.9229 15.1271L18.9917 26.0583ZM22.0833 44.1667C19.0285 44.1667 16.1576 43.5866 13.4708 42.4265C10.784 41.2664 8.44688 39.6933 6.45938 37.7073C4.47188 35.7213 2.89881 33.3841 1.74017 30.6958C0.581531 28.0076 0.00147502 25.1367 2.79536e-06 22.0833C-0.00146943 19.0299 0.578586 16.1591 1.74017 13.4708C2.90175 10.7826 4.47482 8.4454 6.45938 6.45938C8.44393 4.47335 10.7811 2.90028 13.4708 1.74017C16.1606 0.580056 19.0314 0 22.0833 0C25.1352 0 28.0061 0.580056 30.6958 1.74017C33.3856 2.90028 35.7227 4.47335 37.7073 6.45938C39.6918 8.4454 41.2656 10.7826 42.4287 13.4708C43.5918 16.1591 44.1711 19.0299 44.1667 22.0833C44.1622 25.1367 43.5822 28.0076 42.4265 30.6958C41.2708 33.3841 39.6977 35.7213 37.7073 37.7073C35.7168 39.6933 33.3797 41.2671 30.6958 42.4287C28.012 43.5903 25.1411 44.1696 22.0833 44.1667Z" fill="#7EBD61"/>
</svg>
