<svg width="43" height="40" viewBox="0 0 43 40" fill="none" xmlns="http://www.w3.org/2000/svg">
<ellipse cx="21.3934" cy="20" rx="21.3934" ry="20" fill="#ED4B9E"/>
<g clip-path="url(#clip0_4578_752)">
<path d="M12.0564 16.044C12.0563 15.0423 12.3124 14.0563 12.8018 13.1747C13.2912 12.293 13.9984 11.5434 14.8599 10.9932C15.7214 10.4431 16.7102 10.1096 17.7373 10.0227C18.7644 9.93593 19.7975 10.0985 20.7439 10.4959C21.6903 10.8933 22.5201 11.513 23.1588 12.2993C23.7975 13.0855 24.2251 14.0137 24.403 15.0004C24.5809 15.987 24.5036 17.0011 24.178 17.9516C23.8525 18.902 23.2888 19.7588 22.5379 20.4451C23.9537 21.113 25.183 22.1026 26.1216 23.3301C27.0602 24.5576 27.6804 25.9868 27.9297 27.4967C27.9571 27.6647 27.9502 27.8363 27.9093 28.0017C27.8685 28.1672 27.7945 28.3232 27.6916 28.4608C27.5887 28.5985 27.459 28.7151 27.3097 28.804C27.1604 28.8929 26.9946 28.9524 26.8216 28.979C26.6487 29.0056 26.4721 28.9989 26.3018 28.9592C26.1315 28.9196 25.971 28.8477 25.8293 28.7477C25.6877 28.6478 25.5676 28.5217 25.4761 28.3766C25.3846 28.2316 25.3234 28.0705 25.296 27.9024C25.0294 26.2799 24.1763 24.8029 22.8897 23.7366C21.6031 22.6703 19.9674 22.0845 18.2764 22.0845C16.5853 22.0845 14.9496 22.6703 13.663 23.7366C12.3764 24.8029 11.5233 26.2799 11.2567 27.9024C11.2292 28.0705 11.1679 28.2316 11.0762 28.3766C10.9846 28.5215 10.8645 28.6476 10.7228 28.7475C10.581 28.8474 10.4204 28.9191 10.2501 28.9587C10.0798 28.9983 9.90311 29.0049 9.73018 28.9781C9.55725 28.9514 9.39144 28.8918 9.24221 28.8028C9.09298 28.7138 8.96326 28.5971 8.86045 28.4593C8.75764 28.3216 8.68376 28.1656 8.64303 28.0001C8.60229 27.8346 8.5955 27.663 8.62304 27.495C8.87143 25.9852 9.49133 24.5561 10.43 23.329C11.3688 22.1019 12.5985 21.1132 14.0148 20.4469C13.3964 19.8817 12.9036 19.1995 12.5668 18.4423C12.23 17.685 12.0563 16.8689 12.0564 16.044ZM28.0505 13.454C29.083 13.4547 30.0932 13.7466 30.9583 14.2943C31.8234 14.8419 32.5062 15.6218 32.924 16.5392C33.3417 17.4567 33.4764 18.4722 33.3116 19.4625C33.1468 20.4528 32.6897 21.3754 31.9957 22.1182C33.078 22.6392 34.0397 23.369 34.8219 24.2632C35.6041 25.1574 36.1904 26.1971 36.5452 27.3188C36.6156 27.5365 36.6255 27.7684 36.5739 27.991C36.5223 28.2136 36.4109 28.419 36.2512 28.5863C36.0915 28.7536 35.8891 28.8768 35.6645 28.9435C35.4399 29.0102 35.2011 29.018 34.9724 28.9661C34.7438 28.9147 34.5331 28.8055 34.3618 28.6497C34.1905 28.4939 34.0646 28.2968 33.9968 28.0786C33.6778 27.0777 33.0972 26.1743 32.3117 25.4565C31.5262 24.7387 30.5626 24.231 29.5149 23.983C29.2238 23.9147 28.965 23.7533 28.7799 23.5246C28.5949 23.296 28.4944 23.0134 28.4948 22.7226V22.1148C28.4946 21.8737 28.5638 21.6373 28.6944 21.4323C28.825 21.2274 29.0119 21.0619 29.2341 20.9545C29.7728 20.6951 30.2055 20.2663 30.4618 19.7378C30.7181 19.2093 30.7829 18.6122 30.6458 18.0434C30.5087 17.4745 30.1777 16.9675 29.7066 16.6045C29.2354 16.2415 28.6518 16.044 28.0505 16.044C27.697 16.044 27.358 15.9075 27.1081 15.6647C26.8581 15.4218 26.7177 15.0924 26.7177 14.749C26.7177 14.4055 26.8581 14.0761 27.1081 13.8333C27.358 13.5904 27.697 13.454 28.0505 13.454ZM18.2764 12.5907C17.803 12.5803 17.3324 12.6619 16.8919 12.8306C16.4515 12.9994 16.0502 13.252 15.7117 13.5735C15.3731 13.895 15.104 14.279 14.9203 14.703C14.7366 15.1269 14.6419 15.5822 14.6418 16.0422C14.6416 16.5022 14.7361 16.9576 14.9196 17.3816C15.1031 17.8056 15.372 18.1897 15.7104 18.5114C16.0488 18.8331 16.45 19.0859 16.8903 19.2549C17.3306 19.4238 17.8013 19.5057 18.2746 19.4955C19.2032 19.4755 20.0869 19.1032 20.7365 18.4581C21.3862 17.813 21.75 16.9464 21.7502 16.0439C21.7505 15.1414 21.3871 14.2747 20.7378 13.6293C20.0885 12.9839 19.205 12.6111 18.2764 12.5907Z" fill="white"/>
</g>
<defs>
<clipPath id="clip0_4578_752">
<rect width="27" height="27" fill="white" transform="translate(8.60938 6)"/>
</clipPath>
</defs>
</svg>
